HIERARCHY
ROOT Pelvis
{
	OFFSET 0.000000 0.000000 0.000000
	CHANNELS 6 Xposition Yposition Zposition Xrotation Yrotation Zrotation
	JOINT LeftUpLeg_virtual
	{
		OFFSET 0.000000 0.000000 0.000000
		CHANNELS 3 Xrotation Yrotation Zrotation
		JOINT LeftUpLeg
		{
			OFFSET 18.735201 -5.666702 -4.541200
			CHANNELS 3 Xrotation Yrotation Zrotation
			JOINT LeftLeg
			{
				OFFSET -0.021200 -31.938179 0.493100
				CHANNELS 3 Xrotation Yrotation Zrotation
				JOINT LeftFoot
				{
					OFFSET 0.021200 -31.938179 -4.336299
					CHANNELS 3 Xrotation Yrotation Zrotation
					JOINT LeftToeBase
					{
						OFFSET 0.943001 -26.722000 15.023500
						CHANNELS 3 Xrotation Yrotation Zrotation
						End Site
						{
							OFFSET 0 0 0
						}
					}
				}
			}
		}
	}
	JOINT RightUpLeg_virtual
	{
		OFFSET 0.000000 0.000000 0.000000
		CHANNELS 3 Xrotation Yrotation Zrotation
		JOINT RightUpLeg
		{
			OFFSET -18.735201 -5.666702 -4.541200
			CHANNELS 3 Xrotation Yrotation Zrotation
			JOINT RightLeg
			{
				OFFSET 0.018946 -31.938133 0.493100
				CHANNELS 3 Xrotation Yrotation Zrotation
				JOINT RightFoot
				{
					OFFSET -0.018946 -31.938126 -4.336299
					CHANNELS 3 Xrotation Yrotation Zrotation
					JOINT RightToeBase
					{
						OFFSET -0.943001 -26.722004 15.023500
						CHANNELS 3 Xrotation Yrotation Zrotation
						End Site
						{
							OFFSET 0 0 0
						}
					}
				}
			}
		}
	}
	JOINT Hips_virtual
	{
		OFFSET 0.000000 0.000000 0.000000
		CHANNELS 3 Xrotation Yrotation Zrotation
		JOINT Hips
		{
			OFFSET -0.000000 -0.000000 -0.000000
			CHANNELS 3 Xrotation Yrotation Zrotation
			JOINT Spine
			{
				OFFSET 0.000000 10.199997 -0.299500
				CHANNELS 3 Xrotation Yrotation Zrotation
				JOINT Spine1
				{
					OFFSET 0.000000 11.900002 -1.516600
					CHANNELS 3 Xrotation Yrotation Zrotation
					JOINT Spine2
					{
						OFFSET 0.000000 13.600006 -2.842500
						CHANNELS 3 Xrotation Yrotation Zrotation
						JOINT Neck_virtual
						{
							OFFSET 0.000000 0.000000 0.000000
							CHANNELS 3 Xrotation Yrotation Zrotation
							JOINT Neck
							{
								OFFSET 0.000000 9.624100 -2.890100
								CHANNELS 3 Xrotation Yrotation Zrotation
								JOINT Head
								{
									OFFSET 0.000000 14.068802 -1.351900
									CHANNELS 3 Xrotation Yrotation Zrotation
									End Site
									{
										OFFSET 0 0 0
									}
								}
							}
						}
						JOINT LeftShoulder_virtual
						{
							OFFSET 0.000000 0.000000 0.000000
							CHANNELS 3 Xrotation Yrotation Zrotation
							JOINT LeftShoulder
							{
								OFFSET 15.263000 10.923401 -0.547700
								CHANNELS 3 Xrotation Yrotation Zrotation
								JOINT LeftArm
								{
									OFFSET 25.438599 -2.830597 -13.032500
									CHANNELS 3 Xrotation Yrotation Zrotation
									JOINT LeftForeArm
									{
										OFFSET 29.960503 0.000000 0.000000
										CHANNELS 3 Xrotation Yrotation Zrotation
										JOINT LeftHand
										{
											OFFSET 27.849251 0.000000 0.000000
											CHANNELS 3 Xrotation Yrotation Zrotation
											End Site
											{
												OFFSET 0 0 0
											}
										}
									}
								}
							}
						}
						JOINT RightShoulder_virtual
						{
							OFFSET 0.000000 0.000000 0.000000
							CHANNELS 3 Xrotation Yrotation Zrotation
							JOINT RightShoulder
							{
								OFFSET -15.263000 10.923401 -0.547700
								CHANNELS 3 Xrotation Yrotation Zrotation
								JOINT RightArm
								{
									OFFSET -25.438599 -2.830597 -13.032500
									CHANNELS 3 Xrotation Yrotation Zrotation
									JOINT RightForeArm
									{
										OFFSET -29.960503 0.000000 0.000000
										CHANNELS 3 Xrotation Yrotation Zrotation
										JOINT RightHand
										{
											OFFSET -27.849251 0.000000 0.000000
											CHANNELS 3 Xrotation Yrotation Zrotation
											End Site
											{
												OFFSET 0 0 0
											}
										}
									}
								}
							}
						}
					}
				}
			}
		}
	}
}
MOTION
Frames: 7
Frame Time: 0.03333333
5.436668 71.621422 53.863590 0.000000 0.000000 0.000000 -9.802544 -37.539642 4.548091 -56.201757 -4.917309 21.962251 59.310357 -13.067602 -2.181520 1.067244 -11.840711 -19.938765 0.000000 0.000000 0.000000 -1.019613 -27.249369 -12.249803 -32.446667 -7.295469 -30.359491 67.990729 8.812886 -2.293519 2.821286 7.043272 16.749200 0.000000 0.000000 0.000000 -8.875049 -30.677733 -1.766824 -7.723048 -5.692722 -11.200139 16.947694 3.955550 -6.158732 5.553805 2.493116 -1.848063 0.000000 0.000000 0.000000 5.138127 2.314512 -0.492973 1.296663 2.776355 -0.632207 0.000000 0.000000 0.000000 3.198195 0.996087 0.329246 1.668302 5.317205 -5.991472 -56.094407 -16.703088 -51.649132 -60.873282 -80.305901 -55.214471 0.000000 0.000000 0.000000 3.271373 1.265005 -1.140036 3.527800 12.609959 -2.832241 -38.212859 25.060490 70.384676 -162.629973 64.158706 164.709985 0.000000 0.000000 0.000000 
4.936221 72.125313 52.330185 0.000000 0.000000 0.000000 -9.161631 -37.191558 5.024414 -55.549662 -4.870414 22.235946 58.637399 -13.143261 -2.488609 0.554067 -11.705209 -20.443316 0.000000 0.000000 0.000000 0.181511 -28.632877 -11.459688 -31.150393 -8.142459 -30.089425 66.198754 8.997517 -1.149130 0.711609 6.123844 18.330739 0.000000 0.000000 0.000000 -8.681836 -30.551689 -1.465016 -7.365524 -5.903152 -10.147072 16.568997 4.187931 -5.956147 5.387245 2.579929 -1.755793 0.000000 0.000000 0.000000 5.287059 2.318576 -0.793069 1.359059 2.762471 -0.766476 0.000000 0.000000 0.000000 3.219803 1.059693 0.113559 1.752183 5.472266 -6.669082 -55.781824 -16.599270 -51.917774 -60.782898 -80.310990 -55.216769 0.000000 0.000000 0.000000 3.339208 1.342411 -1.329564 3.691450 12.889824 -3.496900 -38.437040 25.610626 70.207631 -162.942618 64.057831 164.989011 0.000000 0.000000 0.000000 
4.455688 72.562073 50.801987 0.000000 0.000000 0.000000 -8.494865 -36.989685 5.405369 -54.869351 -4.800539 22.435589 58.059395 -13.183016 -2.722326 0.132337 -11.585150 -20.821366 0.000000 0.000000 0.000000 1.164698 -30.384800 -10.615136 -30.158922 -9.038804 -29.761791 64.273904 8.813154 0.020254 -1.361000 4.876053 19.531042 0.000000 0.000000 0.000000 -8.394046 -30.411233 -1.130272 -6.677155 -6.034994 -8.976397 16.195943 4.380525 -5.745467 5.225514 2.643729 -1.662822 0.000000 0.000000 0.000000 5.410040 2.314997 -1.073928 1.406604 2.743535 -0.895153 0.000000 0.000000 0.000000 3.225890 1.113859 -0.092527 1.823592 5.602123 -7.335927 -55.545912 -16.460665 -52.255527 -61.082293 -80.303224 -55.607480 0.000000 0.000000 0.000000 3.374271 1.409876 -1.510565 3.819695 13.151207 -4.134734 -38.695487 26.167904 70.024725 -163.272640 63.983081 165.257943 0.000000 0.000000 0.000000 
3.999932 73.053581 49.185204 0.000000 0.000000 0.000000 -7.897535 -36.844974 5.630971 -54.237948 -4.686936 22.521301 57.352060 -13.145596 -2.896572 -0.343728 -11.423471 -21.036474 0.000000 0.000000 0.000000 2.012438 -32.087993 -9.717674 -29.327681 -9.899172 -29.344726 62.112907 8.299319 1.130412 -3.327912 3.450890 20.310015 0.000000 0.000000 0.000000 -8.127723 -30.256580 -0.830032 -5.958785 -5.978525 -8.045650 15.819616 4.544533 -5.530520 5.052243 2.690014 -1.565510 0.000000 0.000000 0.000000 5.513051 2.297859 -1.328891 1.443035 2.716342 -1.015047 0.000000 0.000000 0.000000 3.226122 1.157829 -0.277102 1.890138 5.700513 -7.946876 -55.425940 -16.312239 -52.627967 -61.881814 -80.298682 -56.476287 0.000000 0.000000 0.000000 3.355540 1.463325 -1.676129 3.887605 13.374751 -4.721209 -39.046105 26.611447 69.837899 -163.539235 63.938104 165.417292 0.000000 0.000000 0.000000 
3.615608 73.636787 47.469345 0.000000 0.000000 0.000000 -7.429536 -36.717574 5.634278 -53.698483 -4.507082 22.442195 56.468616 -13.051304 -3.046927 -0.910637 -11.218456 -21.150275 0.000000 0.000000 0.000000 2.601316 -33.822468 -8.882062 -28.776362 -10.697365 -28.921289 59.644511 7.386109 2.105237 -5.255378 1.843290 20.559810 0.000000 0.000000 0.000000 -7.848998 -30.121585 -0.561770 -5.238101 -5.863527 -7.406798 15.462227 4.662702 -5.344884 4.885758 2.708045 -1.483389 0.000000 0.000000 0.000000 5.563368 2.275336 -1.545213 1.455151 2.686517 -1.118918 0.000000 0.000000 0.000000 3.210181 1.187216 -0.434358 1.940799 5.746924 -8.477531 -55.452820 -16.175998 -53.033629 -63.422425 -80.324111 -58.056799 0.000000 0.000000 0.000000 3.296818 1.499834 -1.824069 3.909800 13.549350 -5.246101 -39.439869 26.958104 69.625951 -163.751299 63.955665 165.485826 0.000000 0.000000 0.000000 
3.323393 74.346458 45.718945 0.000000 0.000000 0.000000 -7.088398 -36.540221 5.480361 -53.249227 -4.278192 22.249075 55.491592 -12.851849 -3.163079 -1.479544 -10.944244 -21.120210 0.000000 0.000000 0.000000 3.379545 -34.888938 -7.828711 -28.051397 -11.391916 -28.254263 57.543483 6.546127 2.913475 -6.676321 0.526447 20.740105 0.000000 0.000000 0.000000 -7.608785 -29.982973 -0.368756 -4.737279 -5.823434 -7.143516 15.134058 4.733709 -5.195181 4.733888 2.702372 -1.421689 0.000000 0.000000 0.000000 5.539530 2.248193 -1.693811 1.433294 2.654600 -1.191189 0.000000 0.000000 0.000000 3.177321 1.200448 -0.542275 1.969742 5.735096 -8.841706 -55.681744 -16.048072 -53.362974 -65.464030 -80.352394 -60.060394 0.000000 0.000000 0.000000 3.201839 1.520045 -1.933654 3.879903 13.681037 -5.626310 -39.816393 27.214867 69.447588 -163.893162 64.024636 165.486099 0.000000 0.000000 0.000000 
3.126991 75.240067 43.961422 0.000000 0.000000 0.000000 -6.867800 -36.366874 5.233589 -52.908059 -4.043819 21.994971 54.517747 -12.529881 -3.197530 -1.998405 -10.610837 -20.875286 0.000000 0.000000 0.000000 4.021810 -35.662511 -6.857656 -27.450995 -11.961359 -27.582657 55.532085 5.511004 3.466084 -7.842973 -0.729700 20.503016 0.000000 0.000000 0.000000 -7.401138 -29.835274 -0.246313 -4.284141 -5.737199 -7.218683 14.843441 4.763481 -5.082813 4.602695 2.672732 -1.379737 0.000000 0.000000 0.000000 5.436916 2.225692 -1.744928 1.377081 2.625316 -1.215523 0.000000 0.000000 0.000000 3.142230 1.203541 -0.600791 1.993067 5.685032 -9.043601 -56.099970 -15.945283 -53.639361 -68.136383 -80.393355 -62.631182 0.000000 0.000000 0.000000 3.090761 1.525558 -1.995795 3.816956 13.772907 -5.827484 -40.150799 27.352459 69.324316 -163.955454 64.124200 165.421827 0.000000 0.000000 0.000000 
